# xmcd
#
# Track frame offsets:
#	150
#	13832
#	29727
#	45615
#	59580
#	74451
#	90465
#	110142
#	125262
#	139821
#	156822
#	173407
#	187786
#	198962
#	211158
#	224261
#	239586
#	255507
#	268495
#	286648
#
# Disc length: 4095 seconds
#
# Revision: 2
# Processed by: cddbd v1.5.2PL0 Copyright (c) Steve Scherf et al.
# Submitted via: EasyCDDAExtractor 15.3.0.1
#
DISCID=290ffd14
DTITLE=Ana Barbara - Una Mujer, Un Sueño
DYEAR=2004
DGENRE=Latin
TTITLE0=Bandido
TTITLE1=Al Olvido
TTITLE2=Nada
TTITLE3=Todo Lo Aprendi De Ti
TTITLE4=Sacudeme
TTITLE5=No Se Que Voy A Hacer
TTITLE6=Como Me Haces Falta
TTITLE7=Quise Olvidar
TTITLE8=La Trampa
TTITLE9=Los Besos No Se Dan En La Camisa
TTITLE10=Gracias Por Tu Amor
TTITLE11=Ya No Te Creo Nada
TTITLE12=Como El Azucar De Caramelo
TTITLE13=Me Asusta Pero Me Gusta
TTITLE14=Con Esta Hembra No Se Juega
TTITLE15=Te Regalo La Lluvia
TTITLE16=Recuerdas, Mi Amor
TTITLE17=Pensando En Tu Amor
TTITLE18=Besame, Tocame
TTITLE19=Mala
EXTD=
EXTT0=
EXTT1=
EXTT2=
EXTT3=
EXTT4=
EXTT5=
EXTT6=
EXTT7=
EXTT8=
EXTT9=
EXTT10=
EXTT11=
EXTT12=
EXTT13=
EXTT14=
EXTT15=
EXTT16=
EXTT17=
EXTT18=
EXTT19=
PLAYORDER=
